<svg width="1480" height="8392" viewBox="0 0 1480 8392" fill="none" xmlns="http://www.w3.org/2000/svg">
<path d="M173.959 3591.11C165.173 3582.6 165.173 3568.79 173.959 3560.28V3560.28C182.746 3551.77 196.992 3551.77 205.779 3560.28L1080.88 4408.16C1089.67 4416.67 1089.67 4430.47 1080.88 4438.99V4438.99C1072.09 4447.5 1057.85 4447.5 1049.06 4438.99L173.959 3591.11Z" fill="#1BE437"/>
<rect width="44.3056" height="1226.81" rx="22.1528" transform="matrix(0.718189 -0.695848 0.718189 0.695848 297.915 3330.43)" fill="#0F70C1"/>
<rect width="44.3056" height="1635.17" rx="22.1528" transform="matrix(0.718189 -0.695848 0.718189 0.695848 228.985 3037.9)" fill="#F90880"/>
<rect width="44.3056" height="1630.95" rx="22.1528" transform="matrix(0.718189 -0.695848 0.718189 0.695848 88.1416 3327.75)" fill="#FF7D31"/>
<path d="M167 926.949C167 914.522 177.073 904.449 189.5 904.449V904.449C201.926 904.449 212 914.522 212 926.949L212 3573.53C212 3585.96 201.926 3596.03 189.5 3596.03V3596.03C177.073 3596.03 167 3585.96 167 3573.53L167 926.949Z" fill="#1BE437"/>
<path d="M1043 4426.59C1043 4414.16 1053.07 4404.09 1065.5 4404.09V4404.09C1077.93 4404.09 1088 4414.16 1088 4426.59L1088 7900.61C1088 7913.04 1077.93 7923.11 1065.5 7923.11V7923.11C1053.07 7923.11 1043 7913.04 1043 7900.61L1043 4426.59Z" fill="#1BE437"/>
<rect x="307" y="873.444" width="45" height="2473.58" rx="22.5" fill="#0F70C1"/>
<rect x="1157" y="4132.8" width="45" height="3318.46" rx="22.5" fill="#0F70C1"/>
<rect x="237" y="890.884" width="45" height="2164.51" rx="22.5" fill="#F90880"/>
<rect x="1381" y="4123.11" width="45" height="3013.26" rx="22.5" fill="#F90880"/>
<rect x="96.9998" y="856.004" width="45" height="2491.02" rx="22.5" fill="#FF7D31"/>
<rect x="1237" y="4413.78" width="45" height="3234.17" rx="22.5" fill="#FF7D31"/>
<ellipse cx="-44.0002" cy="5393.33" rx="225" ry="538.705" fill="#FF7D31"/>
<ellipse cx="-44.0002" cy="771.71" rx="225" ry="538.705" fill="#FF7D31"/>
<ellipse rx="223.812" ry="541.718" transform="matrix(-0.914791 -0.403926 0.425626 -0.904899 1485.31 7392.39)" fill="#FF7D31"/>
<ellipse cx="1511" cy="779.946" rx="204" ry="530.469" fill="#A01ECE"/>
<ellipse cx="-93.0002" cy="203.454" rx="226" ry="219.454" fill="#0F70C1"/>
<ellipse rx="224.367" ry="221.131" transform="matrix(0.880984 -0.473147 0.496582 0.86799 -93.0004 7255.1)" fill="#0F70C1"/>
<ellipse cx="1533" cy="218.957" rx="226" ry="219.454" fill="#EED813"/>
<ellipse cx="1504" cy="5303.22" rx="213" ry="326.517" fill="#F90880"/>
<ellipse cx="-0.000244141" cy="564.367" rx="223" ry="326.517" fill="#F90880"/>
<ellipse rx="221.389" ry="329.011" transform="matrix(0.880984 -0.473147 0.496582 0.86799 -0.000337473 7616.01)" fill="#F90880"/>
<ellipse cx="1462" cy="597.309" rx="226" ry="320.704" fill="#1BE437"/>
<ellipse rx="355.905" ry="168.887" transform="matrix(0.973997 -0.226562 0.240513 0.970646 680.269 5597.56)" fill="#0F70C1"/>
<ellipse rx="201.618" ry="536.988" transform="matrix(0.79732 0.603557 -0.627714 0.778444 1511 7940.7)" fill="#A01ECE"/>
<ellipse rx="223.361" ry="222.151" transform="matrix(0.79732 0.603557 -0.627714 0.778444 1533 7710.74)" fill="#EED813"/>
<ellipse rx="223.361" ry="324.645" transform="matrix(0.79732 0.603557 -0.627714 0.778444 88.8741 8098.49)" fill="#1BE437"/>
</svg>
